<svg width="31" height="41" viewBox="0 0 31 41" fill="none" xmlns="http://www.w3.org/2000/svg">
<rect width="24.5235" height="22.2595" transform="matrix(0.216412 0.976302 0.969853 -0.243689 0 16.3906)" fill="#31886C"/>
<rect width="23.0543" height="25.3608" transform="matrix(0.936672 -0.350207 -0.313241 -0.949674 9.4057 32.1582)" fill="#0CB67D"/>
<path d="M10.1278 15.8871L9.47888 14.0801L12.7089 12.9201L15.5764 20.9048L13.5436 21.6349L11.325 15.4572L10.1278 15.8871ZM15.2579 16.4163C15.7068 17.6661 16.3146 18.5657 17.0813 19.1148C17.8481 19.664 18.7848 19.7398 19.8916 19.3423C20.9909 18.9476 21.6616 18.2944 21.9038 17.3829C22.1535 16.4687 22.0539 15.3867 21.6051 14.1369C21.1589 12.8946 20.55 12.0039 19.7785 11.465C19.0117 10.9158 18.0787 10.8386 16.9795 11.2334C15.8727 11.6309 15.1982 12.2854 14.956 13.1969C14.7112 14.1008 14.8118 15.174 15.2579 16.4163ZM19.6851 14.8264C19.942 15.5417 20.0541 16.1261 20.0216 16.5799C19.9938 17.0233 19.7315 17.3343 19.2346 17.5128C18.7301 17.6939 18.3224 17.6236 18.0113 17.3018C17.6975 16.9725 17.4122 16.4502 17.1553 15.7349C16.9011 15.0272 16.7917 14.4502 16.827 14.004C16.8622 13.5578 17.1321 13.2442 17.6365 13.063C18.1335 12.8845 18.5337 12.9576 18.8372 13.2821C19.1456 13.5963 19.4282 14.1111 19.6851 14.8264Z" fill="white"/>
</svg>
